<?xml version="1.0" encoding="utf-8"?><svg xml:space="preserve" viewBox="0 0 100 100" y="0" x="0" xmlns="http://www.w3.org/2000/svg" id="圖層_1" version="1.1" width="200px" height="200px" xmlns:xlink="http://www.w3.org/1999/xlink" style="width:100%;height:100%;background-size:initial;background-repeat-y:initial;background-repeat-x:initial;background-position-y:initial;background-position-x:initial;background-origin:initial;background-image:initial;background-clip:initial;background-attachment:initial;animation-play-state:paused" ><g class="ldl-scale" style="transform-origin:50% 50%;transform:rotate(0deg) scale(0.8, 0.8);animation-play-state:paused" ><path fill="#333" d="M89.225 57.85a40.204 40.204 0 0 0 0-15.7l-10.358-.312a29.774 29.774 0 0 0-2.684-6.479l7.102-7.542a40.21 40.21 0 0 0-11.102-11.102l-7.542 7.102a29.823 29.823 0 0 0-6.479-2.684l-.312-10.358a40.204 40.204 0 0 0-15.7 0l-.312 10.358a29.774 29.774 0 0 0-6.479 2.684l-7.542-7.102a40.21 40.21 0 0 0-11.102 11.102l7.102 7.542a29.823 29.823 0 0 0-2.684 6.479l-10.358.312a40.204 40.204 0 0 0 0 15.7l10.358.312a29.774 29.774 0 0 0 2.684 6.479l-7.102 7.542a40.21 40.21 0 0 0 11.102 11.102l7.542-7.102a29.823 29.823 0 0 0 6.479 2.684l.312 10.358a40.204 40.204 0 0 0 15.7 0l.312-10.358a29.774 29.774 0 0 0 6.479-2.684l7.542 7.102a40.21 40.21 0 0 0 11.102-11.102l-7.102-7.542a29.823 29.823 0 0 0 2.684-6.479l10.358-.312zM50 72c-12.15 0-22-9.85-22-22s9.85-22 22-22 22 9.85 22 22-9.85 22-22 22z" style="fill:rgb(51, 51, 51);animation-play-state:paused" ></path>
<path stroke-miterlimit="10" stroke-width="4" stroke="#333" fill="#f8b26a" d="M63.288 44.233H45.246l6.933-21.064a2.415 2.415 0 0 0-1.289-2.95h0a2.414 2.414 0 0 0-3.075.954L31.983 47.571l-3.459 5.626c-.666 1.083.113 2.476 1.384 2.476h25.69l-6.737 21.105a2.415 2.415 0 0 0 1.333 2.947l.168.073a2.414 2.414 0 0 0 3.068-1.023l15.014-26.531 3.064-5.461c.608-1.083-.175-2.549-1.417-2.549h-6.803z" style="stroke:rgb(51, 51, 51);fill:rgb(248, 178, 106);animation-play-state:paused" ></path>
</g><!-- generated by https://loading.io/ --></svg>