<svg xmlns="http://www.w3.org/2000/svg" width="630" height="353" fill="none" viewBox="0 0 630 353"><g clip-path="url(#clip0_4_115)"><path fill="#fff" d="M102.293 40.6313C97.241 40.6367 92.398 42.5483 88.826 45.9467C85.254 49.3451 83.2447 53.9527 83.239 58.7587V255.834C83.2447 260.64 85.254 265.248 88.826 268.646C92.398 272.045 97.241 273.956 102.293 273.962H531.65C536.702 273.956 541.545 272.045 545.117 268.646C548.689 265.248 550.698 260.64 550.704 255.834V58.7587C550.698 53.9527 548.689 49.3451 545.117 45.9467C541.545 42.5483 536.702 40.6367 531.65 40.6313H102.293Z"/><path fill="#08F7B4" d="M531.65 274.669H102.293C97.044 274.663 92.0121 272.677 88.3008 269.146C84.5894 265.615 82.5018 260.828 82.4958 255.834V58.7587C82.5018 53.7652 84.5894 48.9779 88.3008 45.4469C92.0121 41.916 97.044 39.9299 102.293 39.9242H531.65C536.899 39.9299 541.931 41.916 545.642 45.447C549.354 48.9779 551.441 53.7652 551.447 58.7587V255.834C551.441 260.828 549.354 265.615 545.642 269.146C541.931 272.677 536.899 274.663 531.65 274.669ZM102.293 41.3383C97.4381 41.3435 92.7839 43.1805 89.3512 46.4464C85.9185 49.7122 83.9877 54.1401 83.9822 58.7587V255.834C83.9877 260.453 85.9185 264.881 89.3512 268.147C92.7839 271.412 97.4381 273.249 102.293 273.255H531.65C536.505 273.249 541.159 271.412 544.592 268.147C548.025 264.881 549.955 260.453 549.961 255.834V58.7587C549.955 54.1401 548.025 49.7122 544.592 46.4464C541.159 43.1805 536.505 41.3435 531.65 41.3383H102.293Z"/><path fill="#E6E6E6" d="M226.18 263.63C226.213 262.838 223.665 262.1 220.488 261.98C217.312 261.86 214.71 262.404 214.677 263.195C214.644 263.987 217.192 264.725 220.369 264.845C223.545 264.965 226.147 264.421 226.18 263.63Z"/><path fill="#3F3D56" d="M262.821 261.783C262.854 260.992 260.306 260.253 257.129 260.133C253.953 260.014 251.351 260.558 251.318 261.349C251.285 262.14 253.833 262.879 257.01 262.999C260.186 263.119 262.788 262.575 262.821 261.783Z"/><path fill="#FF6584" d="M212.102 252.873C212.135 252.082 209.587 251.343 206.41 251.223C203.234 251.103 200.632 251.648 200.599 252.439C200.566 253.23 203.114 253.969 206.291 254.089C209.467 254.209 212.069 253.665 212.102 252.873Z"/><path fill="#08F7B4" d="M194.404 248.943C194.489 248.237 193.419 247.541 192.013 247.388C190.608 247.236 189.401 247.685 189.316 248.392C189.231 249.098 190.302 249.794 191.707 249.947C193.112 250.099 194.32 249.65 194.404 248.943Z"/><path fill="#3F3D56" d="M185.948 240.704C186.033 239.998 184.963 239.301 183.557 239.149C182.152 238.997 180.945 239.446 180.86 240.152C180.775 240.859 181.846 241.555 183.251 241.707C184.656 241.86 185.864 241.411 185.948 240.704Z"/><path fill="#E6E6E6" d="M233.736 254.733C233.821 254.027 232.75 253.331 231.345 253.178C229.94 253.026 228.732 253.475 228.648 254.182C228.563 254.888 229.633 255.584 231.039 255.737C232.444 255.889 233.652 255.44 233.736 254.733Z"/><path fill="#FF6584" d="M216.967 258.239C217.051 257.533 215.981 256.837 214.576 256.684C213.17 256.532 211.963 256.981 211.878 257.688C211.793 258.394 212.864 259.09 214.269 259.243C215.674 259.395 216.882 258.946 216.967 258.239Z"/><path fill="#08F7B4" d="M244.091 263.887C244.175 263.181 243.105 262.484 241.7 262.332C240.295 262.18 239.087 262.629 239.002 263.335C238.918 264.042 239.988 264.738 241.393 264.89C242.799 265.043 244.006 264.594 244.091 263.887Z"/><path fill="#08F7B4" d="M0.42017 234.65C0.419824 234.761 0.442468 234.87 0.486793 234.973C0.531118 235.075 0.596256 235.168 0.678453 235.246C0.76065 235.324 0.858283 235.386 0.965744 235.428C1.07321 235.47 1.18837 235.492 1.30461 235.492H628.771C629.005 235.492 629.23 235.403 629.396 235.245C629.562 235.087 629.655 234.873 629.655 234.65C629.655 234.427 629.562 234.213 629.396 234.055C629.23 233.898 629.005 233.809 628.771 233.809H1.30456C1.18833 233.809 1.07318 233.83 0.965721 233.872C0.858267 233.914 0.760633 233.976 0.678442 234.055C0.59625 234.133 0.531117 234.226 0.486793 234.328C0.44247 234.43 0.419828 234.54 0.42017 234.65Z"/><path fill="#08F7B4" d="M214.896 219.785C214.468 219.803 214.045 219.697 213.684 219.479C213.322 219.261 213.04 218.943 212.875 218.568C212.71 218.192 212.67 217.777 212.761 217.38C212.852 216.982 213.069 216.621 213.383 216.344L213.526 215.804C213.508 215.76 213.489 215.717 213.47 215.674C213.039 214.706 212.318 213.881 211.396 213.303C210.474 212.724 209.393 212.417 208.289 212.421C207.185 212.425 206.106 212.74 205.189 213.325C204.272 213.91 203.557 214.74 203.134 215.71C201.444 219.584 199.292 223.464 198.762 227.559C198.528 229.369 198.627 231.204 199.053 232.983C195.083 224.743 193.021 215.787 193.008 206.723C193.007 204.449 193.14 202.176 193.405 199.915C193.625 198.062 193.93 196.222 194.32 194.396C196.448 184.484 201.017 175.194 207.651 167.289C210.863 165.622 213.459 163.059 215.092 159.944C215.684 158.825 216.102 157.63 216.333 156.396C215.971 156.442 214.967 151.193 215.241 150.871C214.736 150.142 213.832 149.78 213.281 149.069C210.539 145.532 206.761 146.15 204.789 150.956C200.576 152.979 200.535 156.334 203.121 159.56C204.765 161.613 204.991 164.391 206.434 166.588C206.286 166.769 206.131 166.944 205.983 167.125C203.269 170.445 200.904 174.01 198.921 177.769C199.403 173.558 198.828 169.298 197.242 165.34C195.634 161.651 192.622 158.544 189.969 155.355C186.782 151.524 180.248 153.196 179.686 158.052C179.681 158.099 179.675 158.146 179.67 158.193C180.064 158.404 180.45 158.629 180.828 158.866C181.302 159.168 181.669 159.598 181.882 160.102C182.094 160.605 182.142 161.158 182.018 161.688C181.895 162.217 181.606 162.699 181.19 163.07C180.774 163.441 180.25 163.684 179.686 163.766L179.629 163.775C179.769 165.126 180.017 166.465 180.371 167.78C176.968 180.302 184.315 184.863 194.807 185.068C195.039 185.181 195.264 185.294 195.496 185.402C193.504 190.773 192.254 196.368 191.778 202.045C191.509 205.395 191.525 208.76 191.826 212.107L191.808 211.989C191.048 208.266 188.961 204.908 185.9 202.48C181.353 198.927 174.929 197.618 170.023 194.762C169.502 194.443 168.896 194.273 168.276 194.272C167.657 194.27 167.05 194.438 166.527 194.754C166.004 195.07 165.587 195.521 165.325 196.055C165.063 196.59 164.967 197.184 165.048 197.768C165.055 197.81 165.061 197.851 165.068 197.893C165.799 198.176 166.511 198.503 167.2 198.87C167.594 199.082 167.98 199.306 168.357 199.544C168.831 199.845 169.199 200.276 169.411 200.779C169.624 201.282 169.671 201.835 169.548 202.365C169.425 202.894 169.136 203.376 168.72 203.747C168.304 204.118 167.78 204.361 167.216 204.444L167.158 204.452C167.117 204.458 167.081 204.463 167.04 204.469C168.289 207.307 170.043 209.92 172.224 212.192C174.352 223.123 183.492 224.16 193.269 220.977H193.275C194.348 225.412 195.902 229.729 197.913 233.858H214.48C214.54 233.683 214.593 233.502 214.647 233.327C213.113 233.419 211.574 233.332 210.062 233.067C211.292 231.632 212.521 230.186 213.75 228.751C213.777 228.724 213.803 228.696 213.827 228.666C214.451 227.932 215.08 227.203 215.704 226.469L215.704 226.468C215.737 224.216 215.466 221.97 214.896 219.785L214.896 219.785Z"/><path fill="#08F7B4" d="M132.188 211.039C131.495 211.069 130.809 210.896 130.223 210.543C129.637 210.19 129.179 209.674 128.912 209.066C128.644 208.457 128.58 207.784 128.727 207.139C128.875 206.495 129.227 205.909 129.736 205.461C129.822 205.138 129.883 204.906 129.968 204.584C129.938 204.514 129.907 204.443 129.876 204.373C129.178 202.805 128.008 201.467 126.514 200.529C125.019 199.591 123.267 199.094 121.476 199.1C119.686 199.106 117.937 199.616 116.45 200.565C114.963 201.513 113.804 202.859 113.118 204.433C110.377 210.713 106.888 217.004 106.028 223.644C105.65 226.58 105.81 229.555 106.5 232.438C100.063 219.078 96.7199 204.558 96.6984 189.861C96.697 186.173 96.9124 182.488 97.3435 178.822C97.6998 175.818 98.1941 172.834 98.8263 169.873C102.277 153.802 109.685 138.739 120.442 125.921C125.649 123.218 129.859 119.062 132.507 114.012C133.466 112.197 134.144 110.259 134.519 108.259C133.932 108.333 132.304 99.8226 132.747 99.3005C131.929 98.1189 130.464 97.5314 129.57 96.3784C125.124 90.6437 118.999 91.645 115.801 99.438C108.97 102.718 108.904 108.158 113.096 113.389C115.762 116.718 116.129 121.221 118.468 124.785C118.228 125.078 117.977 125.362 117.737 125.655C113.336 131.038 109.501 136.819 106.286 142.914C107.068 136.086 106.135 129.178 103.563 122.76C100.957 116.779 96.0727 111.742 91.7711 106.571C86.6042 100.36 76.0089 103.071 75.0986 110.944C75.0898 111.02 75.0813 111.096 75.0729 111.173C75.7118 111.515 76.3372 111.879 76.9492 112.264C77.7179 112.753 78.3136 113.451 78.6581 114.268C79.0027 115.084 79.08 115.98 78.88 116.839C78.68 117.698 78.212 118.479 77.5374 119.08C76.8627 119.682 76.0128 120.075 75.099 120.209L75.0055 120.223C75.2331 122.414 75.6354 124.585 76.209 126.718C70.6906 147.022 82.6044 154.417 99.6158 154.749C99.9913 154.932 100.357 155.115 100.733 155.289C97.5027 163.998 95.4765 173.07 94.7054 182.276C94.2688 187.707 94.2945 193.163 94.7824 198.591L94.7535 198.398C93.5209 192.363 90.137 186.918 85.1731 182.981C77.8005 177.219 67.3844 175.098 59.4307 170.466C55.602 168.237 50.6957 171.118 51.364 175.341C51.3746 175.408 51.3855 175.476 51.3965 175.543C52.5821 176.002 53.7366 176.532 54.853 177.128C55.492 177.471 56.1174 177.835 56.7293 178.22C57.4981 178.708 58.0938 179.406 58.4383 180.223C58.7829 181.039 58.8602 181.935 58.6602 182.794C58.4602 183.653 57.9923 184.434 57.3176 185.036C56.6429 185.637 55.793 186.03 54.8792 186.164L54.7856 186.178C54.7182 186.187 54.6604 186.197 54.5931 186.206C56.619 190.808 59.4624 195.044 62.9987 198.728C66.4492 216.452 81.2692 218.134 97.122 212.972H97.1317C98.871 220.163 101.391 227.163 104.652 233.858H131.515C131.611 233.574 131.698 233.281 131.785 232.997C129.298 233.146 126.802 233.004 124.351 232.576C126.344 230.249 128.338 227.904 130.331 225.577C130.375 225.534 130.417 225.488 130.456 225.44C131.467 224.249 132.487 223.067 133.498 221.876L133.499 221.875C133.553 218.225 133.113 214.583 132.189 211.04L132.188 211.039Z"/><path fill="#2F2E41" d="M499.834 13.2891C498.031 0.137902 466.146 0.976828 463.136 13.35C461.538 12.3997 457.476 13.0574 455.961 14.1497C454.446 15.242 453.475 16.8478 452.524 18.4065C451.226 20.5715 449.881 22.814 449.593 25.2964C449.294 27.774 450.317 30.5807 452.678 31.6839C454.551 32.5631 458.672 31.9694 460.731 31.5758C462.168 31.3041 463.374 31.066 464.397 30.8326C464.741 29.2927 464.504 27.6868 463.727 26.2967C464.555 26.4529 465.335 26.7814 466.013 27.2586C466.691 27.7358 467.25 28.3498 467.649 29.0567C467.81 29.3527 473.652 71.1873 473.652 71.1873C475.249 71.3704 476.86 71.4087 478.464 71.3016C479.46 66.153 479.641 60.8917 479.002 55.6921C480.694 58.664 482.032 61.8061 482.992 65.06C483.542 66.88 483.994 68.7256 484.346 70.5894C498.248 68.1162 517.041 59.5974 520.47 45.1327C520.451 45.086 520.432 45.0393 520.413 44.9927C520.226 44.5506 520.206 44.0604 520.356 43.6058C520.507 43.1513 520.819 42.7607 521.24 42.5011C521.66 42.2414 522.162 42.1289 522.66 42.1826C523.157 42.2364 523.62 42.4531 523.968 42.7957C524.387 43.2061 524.761 43.5569 525.077 43.8287C523.858 34.5912 516.493 26.2788 499.834 13.2891Z"/><path fill="#A0616A" d="M296.846 335.374L289.052 331.498L301.411 300.413L312.915 306.135L296.846 335.374Z"/><path fill="#2F2E41" d="M265.396 335C264.914 335.879 264.818 336.905 265.13 337.852C265.441 338.798 266.135 339.589 267.058 340.05L282.556 347.757L288.109 343.83L286.267 349.599L292.112 352.511L300.769 332.952L298.796 331.827L290.756 327.22L288.16 325.738L285.243 331.045L268.398 333.021C267.766 333.095 267.163 333.314 266.641 333.659C266.118 334.003 265.691 334.464 265.396 335Z"/><path fill="#A0616A" d="M288.861 220.94L283.192 214.543L307.01 190.231L315.376 199.673L288.861 220.94Z"/><path fill="#2F2E41" d="M259.905 209.256C259.109 209.896 258.612 210.811 258.523 211.799C258.434 212.788 258.761 213.769 259.432 214.528L270.705 227.248L277.408 225.616L273.405 230.29L277.655 235.092L293.457 220.112L292.078 218.36L286.473 211.198L284.66 208.891L279.848 212.751L263.471 208.507C262.857 208.348 262.212 208.333 261.591 208.464C260.97 208.594 260.392 208.866 259.905 209.256Z"/><path fill="#2F2E41" d="M538.883 196.968C538.883 196.968 562.952 245.981 463.279 232.773C463.279 232.773 410.175 176.783 411.709 170.046C411.709 170.046 389.107 148.196 390.213 147.798C391.319 147.4 392.002 146.536 390.174 146.615C388.347 146.693 388.347 144.105 388.347 144.105C388.347 144.105 347.5 186.248 313.106 207.161L301.215 194.434C301.215 194.434 305.853 180.632 308.082 180.632C310.312 180.632 311.08 181.142 311.439 178.412C311.798 175.683 310.023 173.339 312.397 173.097C314.771 172.855 363.976 118.142 363.976 118.142C363.976 118.142 369.285 100.122 385.504 103.61C401.724 107.098 486.006 172.29 486.006 172.29L538.883 196.968Z"/><path fill="#2F2E41" d="M498.295 234.362L366.616 233.322L309.39 319.583L293.219 311.439L296.804 309.999C296.804 309.999 295.718 298.01 297.048 294.975C298.377 291.94 302.332 292.853 302.332 292.853L335.696 219.651C337.997 213.154 342.518 207.576 348.537 203.806C354.557 200.035 361.729 198.29 368.912 198.848C396.519 195.017 441.333 198.078 487.89 201.837L498.295 234.362Z"/><path fill="#A0616A" d="M422.057 87.5535C424.563 87.9191 426.821 89.2006 428.349 91.1256C429.878 93.0505 430.556 95.467 430.241 97.8607C430.168 98.3463 430.054 98.8253 429.899 99.293L456.956 118.819L451.372 135.367L417.347 104.806C415.359 104.043 413.692 102.676 412.606 100.917C411.521 99.1581 411.078 97.1068 411.346 95.0832C411.511 93.9331 411.912 92.8252 412.526 91.8225C413.141 90.8199 413.957 89.9423 414.928 89.2397C415.899 88.5372 417.007 88.0235 418.186 87.728C419.366 87.4325 420.596 87.361 421.804 87.5175C421.889 87.5284 421.973 87.5404 422.057 87.5535Z"/><path fill="#481AFF" d="M541.422 88.7724L531.694 114.396L493.65 165.545C493.65 165.545 493.338 165.418 492.773 165.192C489.503 163.848 477.627 158.913 466.457 153.306C455.97 148.038 446.093 142.177 444.562 138.147C444.399 137.722 444.25 137.312 444.116 136.916V136.909C443.403 134.857 442.957 132.729 442.786 130.574C442.66 128.912 442.771 128.021 442.533 127.915C442.348 127.838 441.961 128.219 441.106 129.082C441.047 129.139 440.995 129.195 440.936 129.245C437.844 132.193 434.046 131.811 434.975 130.411C435.926 128.976 435.429 129.004 434.031 127.505C432.991 126.388 429.609 122.018 427.945 119.862C427.372 119.12 427.008 118.639 427.008 118.639L427.58 117.783L429.163 115.422L436.692 104.193L437.108 103.578C437.108 103.578 452.581 106.979 454.64 110.211C456.706 113.442 451.526 113.336 456.706 113.442C461.886 113.548 467.17 106.845 463.387 113.513C459.604 120.173 460.6 122.499 465.282 121.446C467.185 121.014 470.195 122.379 473.093 124.147V124.154C474.906 125.274 476.655 126.485 478.333 127.781C480.124 129.153 481.335 130.192 481.335 130.192L510.721 73.4715L513.976 67.1929C514.968 65.2823 516.35 63.5791 518.043 62.183C519.735 60.7868 521.702 59.7257 523.831 59.0616L524.849 60.7515C531.188 69.6339 536.732 79.0071 541.422 88.7724Z"/><path fill="#481AFF" d="M543.049 170.099C552.057 172.093 542.474 234.473 531.738 234.668C453.703 236.082 477.463 194.429 473.279 190.441C469.095 186.446 465.319 189.31 469.095 183.095C471.845 178.569 475.925 179.241 475.984 176.703C476.014 175.755 475.486 174.369 474.119 172.093C469.095 163.721 469.095 161.225 469.095 161.225C467.842 158.711 466.955 156.047 466.456 153.306C465.641 149.23 465.541 145.054 466.159 140.947C467.103 134.921 469.474 129.179 473.093 124.154V124.147C473.472 123.609 473.866 123.065 474.282 122.528C475.226 121.304 480.458 121.538 480.458 121.538L491.606 76.9928L485.155 59.2314L515.708 45.6134L523.831 59.0617L524.849 60.7516C531.188 69.6339 536.732 79.0072 541.422 88.7725C545.933 98.3249 549.641 108.931 549.775 118.158C550.132 142.219 545.77 149.375 545.77 149.375C545.77 149.375 556.36 156.905 551.061 161.508C545.77 166.118 534.042 168.105 543.049 170.099Z"/><path fill="#3F3D56" d="M404.639 81.6932L399.654 85.2958C398.669 86.0123 398.023 87.0707 397.857 88.2394C397.691 89.4081 398.019 90.5918 398.768 91.5311L410.774 106.545L417.863 115.402C418.615 116.338 419.726 116.951 420.952 117.109C422.179 117.267 423.421 116.956 424.407 116.244L429.398 112.637C430.378 111.918 431.021 110.86 431.186 109.693C431.35 108.526 431.024 107.345 430.277 106.406L429.542 105.481L414.998 87.3005L411.182 82.5347C410.811 82.0705 410.347 81.6805 409.817 81.3869C409.287 81.0934 408.701 80.9021 408.094 80.8239C407.486 80.7458 406.868 80.7824 406.275 80.9315C405.682 81.0807 405.126 81.3395 404.639 81.6932Z"/><path fill="#481AFF" d="M407.246 81.4209L401.875 84.985C401.402 85.2796 400.999 85.6664 400.694 86.1199C400.389 86.5734 400.189 87.0832 400.106 87.6157C400.023 88.1483 400.06 88.6915 400.214 89.2095C400.368 89.7276 400.636 90.2086 400.999 90.6211L408.028 98.6787L411.774 102.971L414.273 105.835L419.862 112.242C420.653 113.101 421.748 113.654 422.939 113.795C424.13 113.936 425.334 113.655 426.322 113.006L430.346 110.336L431.685 109.447C432.352 109.024 432.873 108.422 433.182 107.718C433.491 107.014 433.575 106.238 433.422 105.489C433.288 104.867 432.992 104.286 432.562 103.8L416.046 84.8652L413.705 82.1853C412.915 81.3246 411.82 80.7708 410.629 80.6298C409.437 80.4888 408.233 80.7704 407.246 81.4209Z"/><path fill="#A0616A" d="M410.677 101.322C413.184 101.687 415.441 102.969 416.97 104.894C418.498 106.819 419.177 109.235 418.861 111.629C418.789 112.114 418.674 112.593 418.519 113.061L445.576 132.587L439.993 149.135L405.967 118.574C403.979 117.812 402.312 116.444 401.227 114.685C400.141 112.926 399.698 110.875 399.967 108.851C400.131 107.701 400.532 106.593 401.147 105.591C401.762 104.588 402.578 103.71 403.549 103.008C404.52 102.305 405.627 101.792 406.807 101.496C407.986 101.201 409.216 101.129 410.425 101.286C410.509 101.297 410.593 101.309 410.677 101.322Z"/><path fill="#481AFF" d="M521.029 72.3637C523.394 72.8218 525.628 73.7591 527.578 75.1118C529.528 76.4646 531.15 78.2011 532.331 80.2032C533.513 82.2054 534.228 84.4262 534.427 86.7146C534.626 89.0031 534.305 91.3055 533.486 93.4653L520.317 128.163L482.267 179.316C482.267 179.316 436.636 160.978 433.181 151.914C429.726 142.851 432.846 139.723 429.726 142.851C426.606 145.978 422.65 145.607 423.597 144.176C424.544 142.745 424.046 142.775 422.652 141.276C421.257 139.777 415.629 132.409 415.629 132.409L425.728 117.348C425.728 117.348 441.202 120.746 443.263 123.979C445.325 127.213 440.144 127.107 445.325 127.213C450.507 127.318 455.792 120.613 452.007 127.279C448.223 133.944 449.221 136.268 453.903 135.212C458.586 134.156 469.952 143.961 469.952 143.961L502.599 80.9625C504.241 77.7937 506.94 75.2315 510.274 73.6759C513.608 72.1203 517.39 71.6588 521.029 72.3637Z"/><path fill="#A0616A" d="M501.559 51.4775C511.018 42.478 511.018 27.887 501.559 18.8875C492.099 9.88804 476.763 9.88804 467.304 18.8875C457.844 27.887 457.844 42.478 467.304 51.4775C476.763 60.477 492.099 60.477 501.559 51.4775Z"/><path fill="#2F2E41" d="M512.755 10.0775C510.951 -3.07371 479.067 -2.23478 476.056 10.1383C474.459 9.18806 470.397 9.84582 468.882 10.9381C467.367 12.0304 466.396 13.6362 465.445 15.1949C464.147 17.3599 455.064 24.6846 453.704 22.5491C450.641 17.7431 444.635 28.2449 449.244 35.2762C450.35 36.9621 471.711 34.2556 473.77 33.862C475.206 33.5903 472.746 34.0954 473.77 33.862C474.1 32.3367 477.437 24.4555 476.648 23.085C477.475 23.2413 478.256 23.5698 478.934 24.047C479.612 24.5242 480.171 25.1382 480.57 25.845C480.731 26.1411 486.573 67.9757 486.573 67.9757C488.169 68.1588 489.781 68.197 491.385 68.0899C492.381 62.9413 492.562 57.68 491.923 52.4805C493.615 55.4524 494.953 58.5944 495.913 61.8484C496.463 63.6684 496.915 65.5139 497.267 67.3778C511.169 64.9045 529.962 56.3858 533.391 41.921C514.645 35.9832 529.414 23.0672 512.755 10.0775Z"/><path fill="#08F7B4" d="M300.736 76.1636C301.047 74.1322 298.811 72.1411 295.741 71.7162C292.672 71.2913 289.932 72.5936 289.621 74.625C289.311 76.6564 291.547 78.6476 294.616 79.0725C297.686 79.4974 300.426 78.195 300.736 76.1636Z"/><path fill="#3F3D56" d="M337.28 72.7711C337.591 70.7397 335.354 68.7486 332.285 68.3237C329.216 67.8988 326.476 69.2011 326.165 71.2325C325.854 73.2639 328.091 75.2551 331.16 75.68C334.229 76.1049 336.969 74.8025 337.28 72.7711Z"/><path fill="#FF6584" d="M290.729 48.0168C291.04 45.9854 288.804 43.9942 285.735 43.5693C282.665 43.1445 279.925 44.4468 279.615 46.4782C279.304 48.5096 281.54 50.5008 284.61 50.9257C287.679 51.3505 290.419 50.0482 290.729 48.0168Z"/><path fill="#E6E6E6" d="M274.85 36.4874C274.865 34.6225 273.772 33.1028 272.408 33.093C271.045 33.0832 269.927 34.587 269.912 36.4519C269.898 38.3168 270.991 39.8366 272.355 39.8464C273.718 39.8562 274.836 38.3523 274.85 36.4874Z"/><path fill="#3F3D56" d="M269.465 15.0128C269.48 13.1479 268.387 11.6282 267.023 11.6184C265.66 11.6086 264.542 13.1124 264.527 14.9773C264.513 16.8422 265.606 18.362 266.97 18.3718C268.333 18.3816 269.451 16.8777 269.465 15.0128Z"/><path fill="#E6E6E6" d="M311.34 52.8067C311.355 50.9418 310.262 49.422 308.898 49.4122C307.535 49.4024 306.417 50.9062 306.402 52.7711C306.388 54.636 307.481 56.1558 308.845 56.1656C310.208 56.1754 311.326 54.6715 311.34 52.8067Z"/><path fill="#FF6584" d="M293.681 61.1952C293.696 59.3303 292.602 57.8106 291.239 57.8008C289.875 57.791 288.758 59.2948 288.743 61.1597C288.728 63.0246 289.821 64.5443 291.185 64.5541C292.549 64.5639 293.666 63.0601 293.681 61.1952Z"/><path fill="#3F3D56" d="M318.264 76.6995C318.278 74.8346 317.185 73.3149 315.821 73.3051C314.458 73.2953 313.34 74.7991 313.326 76.664C313.311 78.5289 314.404 80.0487 315.768 80.0585C317.131 80.0683 318.249 78.5644 318.264 76.6995Z"/><path fill="#3F3D56" d="M402.626 96.5294C402.96 96.3023 402.747 95.4743 402.15 94.6802C401.554 93.886 400.799 93.4262 400.465 93.6533C400.131 93.8804 400.344 94.7083 400.941 95.5025C401.538 96.2967 402.292 96.7564 402.626 96.5294Z"/><path fill="#3F3D56" d="M400.397 93.7011C400.731 93.474 400.518 92.6461 399.921 91.8519C399.324 91.0577 398.57 90.598 398.236 90.8251C397.902 91.0522 398.115 91.8801 398.712 92.6743C399.308 93.4685 400.063 93.9282 400.397 93.7011Z"/></g><defs><clipPath id="clip0_4_115"><rect width="629.235" height="351.978" fill="#fff" transform="translate(0.420166 0.533325)"/></clipPath></defs></svg>